<svg height="828" xmlns:xlink="http://www.w3.org/1999/xlink" viewBox="0 0 1071 828" width="1071" xmlns:ev="http://www.w3.org/2001/xml-events" xmlns="http://www.w3.org/2000/svg"><defs/><g transform="translate(5.5,5.5)" id="page1"><rect height="818" fill="none" x="0" y="0" width="1061"/><path fill="#ffffff" d="M980.0,733.0L980.0,7.0C980.0,3.1,976.9,.0,973.0,.0L7.0,.0C3.1,.0,.0,3.1,.0,7.0L.0,733.0C.0,736.9,3.1,740.0,7.0,740.0L973.0,740.0C976.9,740.0,980.0,736.9,980.0,733.0z" stroke-width="1" transform="translate(40.000000,39.000000)" id="shape1" stroke="#101843" fill-rule="nonzero"/><g transform="translate(236.000000,288.000000)" id="shape2"><path fill="#ffffff" d="M583.0,113.0C589.6,113.0,595.0,107.6,595.0,101.0L595.0,12.0C595.0,5.4,589.6,.0,583.0,.0L12.0,.0C5.4,.0,.0,5.4,.0,12.0L.0,101.0C.0,107.6,5.4,113.0,12.0,113.0L583.0,113.0z" stroke-width="1" stroke="#101843" fill-rule="nonzero"/><text xml:space="preserve" style="fill:#191919;font-family:Microsoft YaHei,PingFang SC,Mircrosoft YaHei,Arial;font-size:10.00pt"/></g><path fill="#ffffff" d="M895.6,265.0C902.2,265.0,907.6,259.6,907.6,253.0L907.6,12.0C907.6,5.4,902.2,.0,895.6,.0L12.0,.0C5.4,.0,.0,5.4,.0,12.0L.0,253.0C.0,259.6,5.4,265.0,12.0,265.0L895.6,265.0z" stroke-width="1" transform="translate(68.000000,514.000000)" id="shape3" stroke="#101843" fill-rule="nonzero"/><path fill="none" d="M-0.0,-0.0L983.0,-0.0" stroke-width="1" stroke-dasharray="11,5" transform="matrix(-1.000000,0.000000,0.000000,-1.000000,1022.000000,453.000000)" id="shape4" stroke="#303030"/><g transform="translate(166.000000,123.000000)" id="shape5"><path fill="#ffffff" d="M185.0,117.0L185.0,7.0C185.0,3.1,181.9,.0,178.0,.0L7.0,.0C3.1,.0,.0,3.1,.0,7.0L.0,117.0C.0,120.9,3.1,124.0,7.0,124.0L178.0,124.0C181.9,124.0,185.0,120.9,185.0,117.0z" stroke-width="1" stroke="#101843" fill-rule="nonzero"/><text xml:space="preserve" style="fill:#191919;font-family:Microsoft YaHei,PingFang SC,Mircrosoft YaHei,Arial;font-size:10.00pt"><tspan x="30.2" y="23.0" style="font-family:Microsoft YaHei,PingFang SC,Mircrosoft YaHei,Arial">k8s-apiserver   </tspan><tspan x="124.4" style="fill:#ff0000;font-family:Microsoft YaHei,PingFang SC,Mircrosoft YaHei,Arial;text-decoration:underline">6444</tspan><tspan x="19.0" y="41.0" style="font-family:Microsoft YaHei,PingFang SC,Mircrosoft YaHei,Arial">k8s-controller-manager</tspan><tspan x="49.3" y="59.0" style="font-family:Microsoft YaHei,PingFang SC,Mircrosoft YaHei,Arial">k8s-scheduler</tspan><tspan x="79.0" y="77.0" style="font-family:Microsoft YaHei,PingFang SC,Mircrosoft YaHei,Arial">etcd</tspan><tspan x="68.6" y="95.0" style="font-family:Microsoft YaHei,PingFang SC,Mircrosoft YaHei,Arial">kosmos</tspan></text></g><g transform="translate(414.000000,123.000000)" id="shape6"><path fill="#ffffff" d="M185.0,117.0L185.0,7.0C185.0,3.1,181.9,.0,178.0,.0L7.0,.0C3.1,.0,.0,3.1,.0,7.0L.0,117.0C.0,120.9,3.1,124.0,7.0,124.0L178.0,124.0C181.9,124.0,185.0,120.9,185.0,117.0z" stroke-width="1" stroke="#101843" fill-rule="nonzero"/><text xml:space="preserve" style="fill:#191919;font-family:Microsoft YaHei,PingFang SC,Mircrosoft YaHei,Arial;font-size:10.00pt"><tspan x="30.2" y="32.0" style="font-family:Microsoft YaHei,PingFang SC,Mircrosoft YaHei,Arial">k8s-apiserver   </tspan><tspan x="124.4" style="fill:#ff0000;font-family:Microsoft YaHei,PingFang SC,Mircrosoft YaHei,Arial">6445</tspan><tspan x="19.0" y="50.0" style="font-family:Microsoft YaHei,PingFang SC,Mircrosoft YaHei,Arial">k8s-controller-manager</tspan><tspan x="49.3" y="68.0" style="font-family:Microsoft YaHei,PingFang SC,Mircrosoft YaHei,Arial">k8s-scheduler</tspan><tspan x="79.0" y="86.0" style="font-family:Microsoft YaHei,PingFang SC,Mircrosoft YaHei,Arial">etcd</tspan><tspan x="68.6" y="104.0" style="font-family:Microsoft YaHei,PingFang SC,Mircrosoft YaHei,Arial">kosmos</tspan></text></g><g transform="translate(665.566000,123.000000)" id="shape7"><path fill="#ffffff" d="M185.0,117.0L185.0,7.0C185.0,3.1,181.9,.0,178.0,.0L7.0,.0C3.1,.0,.0,3.1,.0,7.0L.0,117.0C.0,120.9,3.1,124.0,7.0,124.0L178.0,124.0C181.9,124.0,185.0,120.9,185.0,117.0z" stroke-width="1" stroke="#101843" fill-rule="nonzero"/><text xml:space="preserve" style="fill:#191919;font-family:Microsoft YaHei,PingFang SC,Mircrosoft YaHei,Arial;font-size:10.00pt"><tspan x="30.2" y="32.0" style="font-family:Microsoft YaHei,PingFang SC,Mircrosoft YaHei,Arial">k8s-apiserver   </tspan><tspan x="124.4" style="fill:#ff0000;font-family:Microsoft YaHei,PingFang SC,Mircrosoft YaHei,Arial">6446</tspan><tspan x="19.0" y="50.0" style="font-family:Microsoft YaHei,PingFang SC,Mircrosoft YaHei,Arial">k8s-controller-manager</tspan><tspan x="49.3" y="68.0" style="font-family:Microsoft YaHei,PingFang SC,Mircrosoft YaHei,Arial">k8s-scheduler</tspan><tspan x="79.0" y="86.0" style="font-family:Microsoft YaHei,PingFang SC,Mircrosoft YaHei,Arial">etcd</tspan><tspan x="68.6" y="104.0" style="font-family:Microsoft YaHei,PingFang SC,Mircrosoft YaHei,Arial">kosmos</tspan></text></g><g transform="translate(166.000000,39.000000)" id="shape8"><path fill="#ffffff" d="M185.0,78.0L185.0,7.0C185.0,3.1,181.9,.0,178.0,.0L7.0,.0C3.1,.0,.0,3.1,.0,7.0L.0,78.0C.0,81.9,3.1,85.0,7.0,85.0L178.0,85.0C181.9,85.0,185.0,81.9,185.0,78.0z" stroke-width="1" stroke="#101843" fill-rule="nonzero"/><text xml:space="preserve" style="fill:#191919;font-family:Microsoft YaHei,PingFang SC,Mircrosoft YaHei,Arial;font-size:10.00pt"><tspan x="8.4" y="49.0" style="font-family:Microsoft YaHei,PingFang SC,Mircrosoft YaHei,Arial">User A（</tspan><tspan x="62.4" style="fill:#ff0000;font-family:Microsoft YaHei,PingFang SC,Mircrosoft YaHei,Arial">2* 2C 16G 1GPU</tspan><tspan x="163.6" style="font-family:Microsoft YaHei,PingFang SC,Mircrosoft YaHei,Arial">）</tspan></text></g><g transform="translate(258.500000,247.000000)" id="shape9"><path fill="none" d="M.0,.0C17.5,8.5,35.0,17.0,72.5,19.0C110.0,21.0,167.4,16.4,204.5,19.0C238.2,21.3,255.0,29.6,270.4,38.3" stroke-width="1" stroke="#191919"/><path fill="#191919" d="M271.3,35.4L275.0,41.0L268.3,40.6L271.3,35.4" stroke-linecap="round" stroke-width="1" stroke="#191919"/></g><g transform="translate(506.500000,247.000000)" id="shape10"><path fill="none" d="M.0,.0C.4,5.0,.9,10.1,5.2,14.4C9.4,18.7,17.6,22.3,21.8,26.6C24.8,29.6,25.9,33.0,26.5,36.4" stroke-width="1" stroke="#191919"/><path fill="#191919" d="M29.3,34.7L27.0,41.0L23.3,35.4L29.3,34.7" stroke-linecap="round" stroke-width="1" stroke="#191919"/></g><g transform="translate(91.000000,545.500000)" id="group11"><g transform="translate(62.420800,30.500000)" id="shape12"><path fill="#ff7e79" d="M.0,24.5C.0,11.0,19.3,.0,43.1,.0C66.9,.0,86.2,11.0,86.2,24.5C86.2,38.0,66.9,49.0,43.1,49.0C19.3,49.0,.0,38.0,.0,24.5z" stroke-width="1" stroke="#101843" fill-rule="nonzero"/><text xml:space="preserve" style="fill:#191919;font-family:Microsoft YaHei,PingFang SC,Mircrosoft YaHei,Arial;font-size:10.00pt"><tspan x="28.9" y="30.5" style="font-family:Microsoft YaHei,PingFang SC,Mircrosoft YaHei,Arial">POD</tspan></text></g><g id="shape13"><path fill="#44bdad" d="M211.0,211.5L211.0,.0L.0,.0L.0,211.5L211.0,211.5zM14.0,14.0L197.0,14.0L197.0,197.5L14.0,197.5L14.0,14.0z" stroke-width="1" stroke="#101843" fill-rule="nonzero"/><text xml:space="preserve" style="fill:#191919;font-family:Microsoft YaHei,PingFang SC,Mircrosoft YaHei,Arial;font-size:10.00pt"><tspan x="88.3" y="94.0" style="fill:#ff0000;font-family:Microsoft YaHei,PingFang SC,Mircrosoft YaHei,Arial">Node</tspan><tspan x="56.1" y="112.0" style="font-family:Microsoft YaHei,PingFang SC,Mircrosoft YaHei,Arial">IP： 192.168.0.1</tspan><tspan x="34.6" y="130.0" style="font-family:Microsoft YaHei,PingFang SC,Mircrosoft YaHei,Arial">规格： 48C256G10GPU</tspan></text></g></g><g transform="translate(258.000000,309.500000)" id="shape14"><path fill="#ff7e79" d="M120.0,70.0L120.0,.0L.0,.0L.0,70.0L120.0,70.0zM14.0,14.0L106.0,14.0L106.0,56.0L14.0,56.0L14.0,14.0z" stroke-width="1" stroke="#101843" fill-rule="nonzero"/><text xml:space="preserve" style="fill:#191919;font-family:Microsoft YaHei,PingFang SC,Mircrosoft YaHei,Arial;font-size:10.00pt"><tspan x="38.5" y="41.0" style="font-family:Microsoft YaHei,PingFang SC,Mircrosoft YaHei,Arial">Master</tspan></text></g><g transform="translate(461.783000,309.500000)" id="shape15"><path fill="#ff7e79" d="M120.0,70.0L120.0,.0L.0,.0L.0,70.0L120.0,70.0zM14.0,14.0L106.0,14.0L106.0,56.0L14.0,56.0L14.0,14.0z" stroke-width="1" stroke="#101843" fill-rule="nonzero"/><text xml:space="preserve" style="fill:#191919;font-family:Microsoft YaHei,PingFang SC,Mircrosoft YaHei,Arial;font-size:10.00pt"><tspan x="38.5" y="41.0" style="font-family:Microsoft YaHei,PingFang SC,Mircrosoft YaHei,Arial">Master</tspan></text></g><g transform="translate(665.566000,309.500000)" id="shape16"><path fill="#ff7e79" d="M120.0,70.0L120.0,.0L.0,.0L.0,70.0L120.0,70.0zM14.0,14.0L106.0,14.0L106.0,56.0L14.0,56.0L14.0,14.0z" stroke-width="1" stroke="#101843" fill-rule="nonzero"/><text xml:space="preserve" style="fill:#191919;font-family:Microsoft YaHei,PingFang SC,Mircrosoft YaHei,Arial;font-size:10.00pt"><tspan x="38.5" y="41.0" style="font-family:Microsoft YaHei,PingFang SC,Mircrosoft YaHei,Arial">Master</tspan></text></g><g transform="translate(758.066000,247.000000)" id="shape17"><path fill="none" d="M.0,.0C-3.4,8.5,-6.8,17.0,-40.1,19.0C-73.3,21.0,-136.3,16.4,-172.1,19.0C-202.7,21.2,-213.3,28.7,-220.9,36.9" stroke-width="1" stroke="#191919"/><path fill="#191919" d="M-218.3,38.5L-224.6,41.0L-222.8,34.5L-218.3,38.5" stroke-linecap="round" stroke-width="1" stroke="#191919"/></g><g transform="translate(506.500000,247.000000)" id="shape18"><path fill="none" d="M.0,.0C.4,5.0,.9,10.1,5.2,14.4C9.4,18.7,17.6,22.3,21.8,26.6C24.8,29.6,25.9,33.0,26.5,36.4" stroke-width="1" stroke="#191919"/><path fill="#191919" d="M29.3,34.7L27.0,41.0L23.3,35.4L29.3,34.7" stroke-linecap="round" stroke-width="1" stroke="#191919"/></g><g transform="translate(734.000000,552.000000)" id="group19"><g transform="translate(62.420800,30.500000)" id="shape20"><path fill="#ff7e79" d="M.0,24.5C.0,11.0,19.3,.0,43.1,.0C66.9,.0,86.2,11.0,86.2,24.5C86.2,38.0,66.9,49.0,43.1,49.0C19.3,49.0,.0,38.0,.0,24.5z" stroke-width="1" stroke="#101843" fill-rule="nonzero"/><text xml:space="preserve" style="fill:#191919;font-family:Microsoft YaHei,PingFang SC,Mircrosoft YaHei,Arial;font-size:10.00pt"><tspan x="28.9" y="30.5" style="font-family:Microsoft YaHei,PingFang SC,Mircrosoft YaHei,Arial">POD</tspan></text></g><g id="shape21"><path fill="#44bdad" d="M211.0,211.5L211.0,.0L.0,.0L.0,211.5L211.0,211.5zM14.0,14.0L197.0,14.0L197.0,197.5L14.0,197.5L14.0,14.0z" stroke-width="1" stroke="#101843" fill-rule="nonzero"/><text xml:space="preserve" style="fill:#191919;font-family:Microsoft YaHei,PingFang SC,Mircrosoft YaHei,Arial;font-size:10.00pt"><tspan x="88.3" y="94.0" style="fill:#ff0000;font-family:Microsoft YaHei,PingFang SC,Mircrosoft YaHei,Arial">Node</tspan><tspan x="56.1" y="112.0" style="font-family:Microsoft YaHei,PingFang SC,Mircrosoft YaHei,Arial">IP： 192.168.0.2</tspan><tspan x="34.6" y="130.0" style="font-family:Microsoft YaHei,PingFang SC,Mircrosoft YaHei,Arial">规格： 48C256G10GPU</tspan></text></g></g><g transform="translate(414.000000,39.000000)" id="shape22"><path fill="#ffffff" d="M185.0,78.0L185.0,7.0C185.0,3.1,181.9,.0,178.0,.0L7.0,.0C3.1,.0,.0,3.1,.0,7.0L.0,78.0C.0,81.9,3.1,85.0,7.0,85.0L178.0,85.0C181.9,85.0,185.0,81.9,185.0,78.0z" stroke-width="1" stroke="#101843" fill-rule="nonzero"/><text xml:space="preserve" style="fill:#191919;font-family:Microsoft YaHei,PingFang SC,Mircrosoft YaHei,Arial;font-size:10.00pt"><tspan x="8.9" y="49.0" style="font-family:Microsoft YaHei,PingFang SC,Mircrosoft YaHei,Arial">User B（</tspan><tspan x="62.0" style="fill:#ff0000;font-family:Microsoft YaHei,PingFang SC,Mircrosoft YaHei,Arial">4* 2C 16G 1GPU</tspan><tspan x="163.1" style="font-family:Microsoft YaHei,PingFang SC,Mircrosoft YaHei,Arial">）</tspan></text></g><g transform="translate(665.566000,39.000000)" id="shape23"><path fill="#ffffff" d="M185.0,78.0L185.0,7.0C185.0,3.1,181.9,.0,178.0,.0L7.0,.0C3.1,.0,.0,3.1,.0,7.0L.0,78.0C.0,81.9,3.1,85.0,7.0,85.0L178.0,85.0C181.9,85.0,185.0,81.9,185.0,78.0z" stroke-width="1" stroke="#101843" fill-rule="nonzero"/><text xml:space="preserve" style="fill:#191919;font-family:Microsoft YaHei,PingFang SC,Mircrosoft YaHei,Arial;font-size:10.00pt"><tspan x="8.6" y="49.0" style="font-family:Microsoft YaHei,PingFang SC,Mircrosoft YaHei,Arial">User C（</tspan><tspan x="62.2" style="fill:#ff0000;font-family:Microsoft YaHei,PingFang SC,Mircrosoft YaHei,Arial">2* 2C 16G 4GPU</tspan><tspan x="163.4" style="font-family:Microsoft YaHei,PingFang SC,Mircrosoft YaHei,Arial">）</tspan></text></g><g transform="translate(521.783000,379.500000)" id="shape24"><path fill="none" d="M.0,.0C.2,54.6,.3,109.2,-14.2,154.6C-28.8,200.0,-58.1,236.1,-94.8,254.1C-130.2,271.5,-172.6,271.9,-215.2,271.8" stroke-width="1" stroke="#191919"/><path fill="#191919" d="M-213.8,274.8L-219.8,271.8L-213.8,268.8L-213.8,274.8" stroke-linecap="round" stroke-width="1" stroke="#191919"/></g><g transform="translate(521.783000,379.500000)" id="shape25"><path fill="none" d="M.0,.0C-0.2,55.9,-0.3,111.8,13.8,158.3C27.8,204.7,56.1,241.8,91.5,260.2C125.6,277.9,166.3,278.4,207.3,278.3" stroke-width="1" stroke="#191919"/><path fill="#191919" d="M206.2,275.3L212.2,278.3L206.2,281.3L206.2,275.3" stroke-linecap="round" stroke-width="1" stroke="#191919"/></g></g></svg>